# xmcd CD database file
#
# Track frame offsets:
#	182
#	25232
#	42677
#	66632
#	89282
#	107282
#	133982
#	156182
#	175882
#	194157
#	213182
#	240382
#	264032
#	282582
#	299957
#
# Disc length: 4317 seconds
#
# Revision: 2
# Processed by: cddbd v1.4b41PL1 Copyright (c) Steve Scherf et al.
# Submitted via: Feurio! 1.60 - http://www.feurio.com
#
DISCID=d510db0f,ed10db0f
DTITLE=Various Artist - (Crazy!) Soul and Contemporary R and B
DYEAR=1900
DGENRE=
TTITLE0=Funky Company - Give Me Time Again
TTITLE1=Men With Style - Love Is Like That
TTITLE2=Password Feat. Luca - Nothings Gonna Stop Us Now
TTITLE3=Men For Soul - Spread Your Love
TTITLE4=Blacknuss - It Should Have Been You
TTITLE5=Gerideau - Take A Stand For Love (Blaze Shelter Mix)
TTITLE6=Lenny White Feat. Chaka Khan - Who Do You Love
TTITLE7=Colour Club - On And On
TTITLE8=Al Castellana - Peace Don't Need Guns
TTITLE9=Piliph Bailey - Yours
TTITLE10=Cunnie Williams - World Keeps Fallin
TTITLE11=Jhelisa - Sweet Dreams
TTITLE12=G.E.M. Feat. Ghida De Palma - The Light
TTITLE13=Main Street People - Ticket
TTITLE14=David Lasley - Night Of Our Lives
EXTD=Allegato Alla Rivista Bimestrale "Crazy Time"
EXTT0=
EXTT1=
EXTT2=
EXTT3=
EXTT4=
EXTT5=
EXTT6=
EXTT7=
EXTT8=
EXTT9=
EXTT10=
EXTT11=
EXTT12=
EXTT13=
EXTT14=
PLAYORDER=
